OpenSim_Sub04_CSBaseline_RCS.mot
version=1
nRows=54
nColumns=11
inDegrees=no
endheader
time	Top_Thigh	Med_Thigh	Bot_Thigh	Top_Shank	2nd_Top_Shank	2nd_Bot_Shank	Bot_Shank	BNOx	BNOy	BNOZ
0	1384.88080863	1330.07029457	1244.75549354	1089.92899489	1219.94583677	1119.00743499	1039.07125851	349.17398113	-75.83471442	-154.18032721
0.01000000	1385.04361903	1329.95926933	1245.15563896	1090.06320101	1220.02033140	1119.00745110	1038.97127296	349.20168395	-75.79434747	-154.29813338
0.02000000	1385.03360325	1329.87815924	1245.51456233	1090.27021125	1220.01954491	1119.06685824	1038.96132485	349.23374461	-75.75798072	-154.42312376
0.03000000	1384.87781388	1329.82413230	1245.82654778	1090.53053792	1219.95683264	1119.17319709	1039.02520385	349.26852770	-75.72532829	-154.55107449
0.04000000	1384.60664701	1329.79404860	1246.08680513	1090.82331277	1219.84695699	1119.31231195	1039.14471264	349.30434556	-75.69609635	-154.67737002
0.05000000	1384.25049873	1329.78476823	1246.29054422	1091.12766753	1219.70468037	1119.47004713	1039.30165389	349.33951053	-75.66999109	-154.79739480
0.06000000	1383.83976517	1329.79315127	1246.43297487	1091.42273395	1219.54476516	1119.63224693	1039.47783029	349.37233494	-75.64671867	-154.90653328
0.07000000	1383.40484240	1329.81605779	1246.50930690	1091.68764377	1219.38197378	1119.78475565	1039.65504451	349.40113115	-75.62598526	-155.00016991
0.08000000	1382.97612654	1329.85034788	1246.51475016	1091.90152872	1219.23106863	1119.91341760	1039.81509922	349.42421147	-75.60749705	-155.07368916
0.09000000	1382.58401369	1329.89288162	1246.44451445	1092.04352055	1219.10681210	1120.00407708	1039.93979710	349.43988827	-75.59096021	-155.12247547
0.10000000	1382.25889995	1329.94051910	1246.29380962	1092.09275099	1219.02396659	1120.04257841	1040.01094084	349.44647387	-75.57608091	-155.14191329
0.11000000	1382.03118142	1329.99012040	1246.05784548	1092.02835180	1218.99729451	1120.01476587	1040.01033309	349.44228063	-75.56256533	-155.12738709
0.12000000	1381.92678702	1330.03835095	1245.73570791	1091.83493538	1219.03889185	1119.91010628	1039.92389804	349.42598657	-75.55015051	-155.07513068
0.13000000	1381.93863034	1330.08043769	1245.35512921	1091.53761976	1219.14114819	1119.74483902	1039.76802028	349.39897250	-75.53880169	-154.98765521
0.14000000	1382.04482742	1330.11096282	1244.95668109	1091.17967769	1219.28762063	1119.54720299	1039.57273685	349.36383061	-75.52858639	-154.87028536
0.15000000	1382.22342450	1330.12450548	1244.58099580	1090.80446756	1219.46182462	1119.34549370	1039.36814919	349.32315880	-75.51957260	-154.72835908
0.16000000	1382.45246783	1330.11564483	1244.26870563	1090.45534776	1219.64727558	1119.16800668	1039.18435874	349.27955498	-75.51182831	-154.56721431
0.17000000	1382.71000362	1330.07896000	1244.06044284	1090.17567668	1219.82748898	1119.04303744	1039.05146695	349.23561704	-75.50542151	-154.39218901
0.18000000	1382.97407814	1330.00903016	1243.99683969	1090.00881271	1219.98598025	1118.99888149	1038.99957526	349.19394289	-75.50042021	-154.20862112
0.19000000	1383.22460337	1329.90238184	1244.10737235	1089.98780682	1220.10828645	1119.05644404	1039.05116386	349.15659962	-75.49686847	-154.02092354
0.20000000	1383.45158283	1329.76607451	1244.36117604	1090.08995944	1220.19087923	1119.19665778	1039.18749128	349.12278329	-75.49468095	-153.82850580
0.21000000	1383.64841627	1329.61071250	1244.70707849	1090.27380840	1220.23391018	1119.38700279	1039.37594311	349.09072374	-75.49372879	-153.62909357
0.22000000	1383.80850602	1329.44690278	1245.09389212	1090.49787737	1220.23753367	1119.59494905	1039.58389445	349.05865006	-75.49388306	-153.42041123
0.23000000	1383.92525439	1329.28525233	1245.47042936	1090.72069005	1220.20190410	1119.78796650	1039.77872040	349.02479136	-75.49501486	-153.20018319
0.24000000	1383.99206370	1329.13636814	1245.78550264	1090.90077010	1220.12717583	1119.93352511	1039.92779610	348.98737674	-75.49699527	-152.96613384
0.25000000	1384.00233627	1329.01085720	1245.98792438	1090.99664122	1220.01350325	1119.99909482	1039.99849664	348.94463530	-75.49969537	-152.71598757
0.26000000	1383.95165686	1328.91791616	1246.03760713	1090.97602383	1219.86290517	1119.95987838	1039.96575227	348.89537583	-75.50307572	-152.44848359
0.27000000	1383.84741448	1328.85911363	1245.95450145	1090.85638157	1219.68748471	1119.83290331	1039.84535724	348.84154248	-75.50758076	-152.16785002
0.28000000	1383.70097084	1328.83345102	1245.77876349	1090.67191891	1219.50273885	1119.64927313	1039.66685843	348.78613464	-75.51381778	-151.88016225
0.29000000	1383.52369063	1328.83992780	1245.55056460	1090.45685296	1219.32416710	1119.44010196	1039.45981307	348.73215246	-75.52239419	-151.59149703
0.30000000	1383.32693854	1328.87754345	1245.31007614	1090.24540081	1219.16726899	1119.23650392	1039.25377840	348.68259609	-75.53391740	-151.30793115
0.31000000	1383.12207929	1328.94529743	1245.09746947	1090.07177959	1219.04754405	1119.06959313	1039.07831164	348.64046570	-75.54899483	-151.03554139
0.32000000	1382.92038743	1329.04210993	1244.95234197	1089.96966900	1218.98022911	1118.96999703	1038.96253655	348.60871734	-75.56822347	-150.78034335
0.33000000	1382.72963436	1329.16381881	1244.89197816	1089.95185838	1218.97034934	1118.94942411	1038.91872492	348.58859249	-75.59179524	-150.54597533
0.34000000	1382.55304063	1329.30225786	1244.90467736	1090.00399970	1219.00966456	1118.99500641	1038.93725729	348.57910529	-75.61937581	-150.33298734
0.35000000	1382.39352269	1329.44899327	1244.97680173	1090.10993129	1219.08904806	1119.09223350	1039.00705115	348.57912106	-75.65059571	-150.14172300
0.36000000	1382.25399698	1329.59559125	1245.09471346	1090.25349149	1219.19937312	1119.22659492	1039.11702400	348.58750510	-75.68508546	-149.97252596
0.37000000	1382.13737993	1329.73361798	1245.24477471	1090.41851863	1219.33151302	1119.38358024	1039.25609335	348.60312271	-75.72247558	-149.82573983
0.38000000	1382.04658799	1329.85463968	1245.41334766	1090.58885103	1219.47634105	1119.54867903	1039.41317669	348.62483920	-75.76239659	-149.70170825
0.39000000	1381.98453759	1329.95022253	1245.58679449	1090.74832704	1219.62473047	1119.70738083	1039.57719153	348.65151987	-75.80447902	-149.60077485
0.40000000	1381.95414516	1330.01193274	1245.75147738	1090.88078498	1219.76755459	1119.84517522	1039.73705536	348.68203002	-75.84835338	-149.52328326
0.41000000	1381.95832715	1330.03133650	1245.89375849	1090.97006319	1219.89568667	1119.94755176	1039.88168568	348.71523496	-75.89365020	-149.46957710
0.42000000	1382	1330	1246	1091	1220	1120	1040	348.75000000	-75.94000000	-149.44000000
0.43000000	1382.07995394	1329.91230828	1246.06053249	1090.95999746	1220.07363006	1119.99359920	1040.08360389	348.78540440	-75.98705915	-149.43433547
0.44000000	1382.19047440	1329.77392168	1246.08156013	1090.86171249	1220.11876115	1119.94178737	1040.13485529	348.82138327	-76.03458741	-149.45012652
0.45000000	1382.32172062	1329.59331937	1246.07325550	1090.72236571	1220.13983975	1119.86359223	1040.15880019	348.85808571	-76.08237042	-149.48435601
0.46000000	1382.46385182	1329.37898054	1246.04579118	1090.55917778	1220.14131236	1119.77804150	1040.16048459	348.89566080	-76.13019380	-149.53400683
0.47000000	1382.60702725	1329.13938435	1246.00933972	1090.38936932	1220.12762545	1119.70416288	1040.14495451	348.93425760	-76.17784317	-149.59606186
0.48000000	1382.74140612	1328.88300999	1245.97407372	1090.23016097	1220.10322553	1119.66098409	1040.11725595	348.97402522	-76.22510416	-149.66750397
0.49000000	1382.85714768	1328.61833662	1245.95016573	1090.09877336	1220.07255909	1119.66753283	1040.08243491	349.01511273	-76.27176238	-149.74531604
0.50000000	1382.94441115	1328.35384343	1245.94778835	1090.01242712	1220.04007261	1119.74283682	1040.04553740	349.05766921	-76.31760346	-149.82648095
0.51000000	1382.99335576	1328.09800958	1245.97711414	1089.98834290	1220.01021259	1119.90592378	1040.01160942	349.10184374	-76.36241302	-149.90798158
0.52000000	1382.99482969	1327.85929228	1246.04732569	1090.04251854	1219.98722129	1120.17339015	1039.98546545	349.14775527	-76.40598308	-149.98692426
0.53000000	1382.94998953	1327.64581977	1246.15279247	1090.17265534	1219.97228528	1120.52545345	1039.96845562	349.19507179	-76.44820120	-150.06226260
